<svg width="2559" height="1540" viewBox="0 0 2559 1540" fill="none" xmlns="http://www.w3.org/2000/svg">
<path d="M671.631 1503.43C665.243 1515.67 669.987 1530.77 682.227 1537.16C694.468 1543.55 709.569 1538.81 715.957 1526.57L671.631 1503.43ZM1442.72 80L1464.88 91.5669L1492.41 38.8244L1435.47 56.0739L1442.72 80ZM8 514.652L0.751519 490.726L12.2071 539.295L8 514.652ZM715.957 1526.57L1464.88 91.5669L1420.56 68.4331L671.631 1503.43L715.957 1526.57ZM1435.47 56.0739L0.751519 490.726L15.2485 538.578L1449.97 103.926L1435.47 56.0739ZM12.2071 539.295L2558.21 104.643L2549.79 55.3565L3.79288 490.008L12.2071 539.295Z" fill="black"/>
<path d="M1673.58 47.9166C1671.91 48.8358 1670.88 50.9714 1667.96 54.7698C1665.02 58.5615 1662.96 61.035 1658.92 66.8872C1654.88 72.7472 1652.07 76.5369 1647.76 84.0462C1643.44 91.5567 1641.18 96.2026 1637.35 104.444C1633.53 112.685 1631.47 116.966 1628.61 125.254C1625.75 133.55 1624.31 138.36 1623.03 145.91C1621.75 153.459 1621.32 157.418 1622.21 163.01C1623.11 168.601 1624.23 171.014 1627.52 173.859C1630.8 176.705 1633.44 177.514 1638.64 177.253C1643.84 176.985 1647.2 175.869 1653.54 172.541C1659.87 169.213 1663.49 166.506 1670.31 160.619C1677.15 154.731 1680.91 151.072 1687.69 143.105C1694.49 135.136 1698.24 130.139 1704.28 120.795C1710.32 111.45 1713.18 106.197 1717.89 96.3819C1722.61 86.5663 1724.97 81.1244 1727.87 71.7166C1730.76 62.3011 1731.36 57.5206 1732.37 49.3265C1733.38 41.1325 1733.36 37.0423 1732.9 30.7474C1732.45 24.4603 1731.92 22.1114 1730.1 17.8832C1728.29 13.6471 1726.92 11.5189 1723.82 9.59295C1720.72 7.66698 1718.28 7.52212 1714.62 8.25334C1710.94 8.98574 1708.64 10.8828 1705.48 13.2436C1702.32 15.5955 1700.79 17.377 1698.78 20.0262C1696.78 22.6742 1695.55 24.7779 1695.47 26.4938C1695.4 28.2164 1696.84 29.1478 1698.41 28.6192C1699.96 28.0917 1701.16 26.034 1703.28 23.8607C1705.41 21.6863 1706.54 19.8942 1709.06 17.7573C1711.58 15.6113 1713.4 14.0584 1715.91 13.1568C1718.43 12.2463 1719.44 11.9999 1721.65 13.2302C1723.86 14.4604 1725.26 15.7408 1726.97 19.2992C1728.68 22.8497 1729.57 25.0347 1730.2 30.992C1730.84 36.9493 1730.99 41.0441 1730.15 49.0777C1729.3 57.1047 1728.77 61.8502 1725.99 71.1458C1723.2 80.4503 1720.86 85.8564 1716.2 95.5759C1711.54 105.303 1708.7 110.53 1702.68 119.76C1696.67 128.989 1692.9 133.941 1686.1 141.734C1679.31 149.534 1675.5 153.106 1668.72 158.74C1661.93 164.365 1658.22 166.847 1652.18 169.894C1646.12 172.933 1642.96 173.661 1638.44 173.962C1633.94 174.261 1632.31 173.684 1629.65 171.398C1626.99 169.113 1625.95 167.555 1625.13 162.541C1624.32 157.527 1624.43 153.624 1625.57 146.318C1626.71 139.013 1628.04 134.187 1630.82 126.015C1633.61 117.841 1635.65 113.569 1639.51 105.444C1643.36 97.3261 1645.68 92.7577 1650.09 85.4171C1654.49 78.0698 1657.38 74.4133 1661.53 68.7274C1665.68 63.0505 1667.87 60.732 1670.83 57.0159C1673.79 53.2997 1675.79 51.9661 1676.35 50.1467C1676.9 48.3284 1675.26 46.9884 1673.58 47.9166Z" fill="black" stroke="black" stroke-width="14"/>
<path d="M1703.62 53.5319C1702.55 55.3314 1702.76 58.3431 1702.05 63.1232C1701.35 67.8944 1700.87 71.0957 1700.1 77.4223C1699.34 83.7556 1698.97 87.8172 1698.25 94.774C1697.52 101.731 1697.03 105.006 1696.5 112.204C1695.98 119.401 1695.77 123.463 1695.63 130.77C1695.49 138.069 1695.43 141.853 1695.81 148.717C1696.19 155.58 1696.3 159.243 1697.54 165.071C1698.78 170.904 1699.83 173.648 1702.02 177.859C1704.21 182.07 1705.2 184.057 1708.51 186.126C1711.82 188.196 1714.3 188.612 1718.57 188.198C1722.84 187.782 1725.29 186.811 1729.84 184.035C1734.39 181.26 1736.67 178.961 1741.33 174.329C1746.01 169.695 1748.64 166.834 1753.21 160.871C1757.77 154.91 1760.05 151.231 1764.16 144.517C1768.27 137.794 1770.26 133.865 1773.75 127.29C1777.24 120.709 1778.82 117.175 1781.61 111.638C1784.4 106.108 1786.16 103.24 1787.69 99.6195C1789.21 96.0079 1789.63 94.4711 1789.22 93.5527C1788.82 92.6331 1786.67 92.923 1785.67 95.0239C1784.67 97.1249 1784.77 99.7853 1784.21 104.058C1783.66 108.321 1783.18 111.562 1782.89 116.352C1782.61 121.148 1782.45 123.952 1782.8 128.016C1783.14 132.082 1783.19 133.914 1784.63 136.685C1786.06 139.458 1787.36 140.817 1789.95 141.87C1792.55 142.923 1794.44 142.912 1797.63 141.94C1800.84 140.975 1802.57 139.656 1805.96 137.015C1809.36 134.381 1811.12 132.653 1814.6 128.747C1818.1 124.832 1820.01 122.165 1823.4 117.461C1826.79 112.765 1828.76 109.604 1831.56 105.252C1834.36 100.899 1836.07 98.8593 1837.39 95.6991C1838.72 92.5388 1838.9 90.8155 1838.17 89.4515C1837.44 88.0863 1835.38 87.686 1833.75 88.8857C1832.12 90.0776 1831.31 92.1805 1830 95.4109C1828.69 98.649 1827.97 101.177 1827.18 105.046C1826.38 108.917 1825.99 111.149 1826.01 114.754C1826.03 118.359 1825.87 120.286 1827.26 123.064C1828.65 125.843 1830.08 127.5 1832.95 128.664C1835.81 129.821 1837.95 129.62 1841.58 128.87C1845.21 128.128 1847.16 127.263 1851.1 124.922C1855.04 122.573 1857.24 120.708 1861.27 117.15C1865.3 113.601 1867.45 111.185 1871.28 107.14C1875.1 103.104 1877.22 100.535 1880.42 96.9582C1883.61 93.3831 1885.46 91.4657 1887.24 89.2725C1889.02 87.0793 1889.31 86.4224 1889.3 85.9948C1889.29 85.5582 1887.94 85.6721 1887.17 87.1176C1886.39 88.571 1885.98 90.3605 1885.43 93.2459C1884.89 96.1224 1884.79 98.264 1884.44 101.526C1884.09 104.787 1883.35 106.546 1883.68 109.554C1884.01 112.563 1884.33 114.458 1886.09 116.577C1887.84 118.688 1889.58 120.005 1892.44 120.119C1895.29 120.233 1896.86 119.123 1900.37 117.156C1903.88 115.191 1905.79 113.75 1909.97 110.298C1914.15 106.846 1916.55 104.202 1921.26 99.8897C1925.97 95.578 1928.88 92.9917 1933.5 88.7418C1938.11 84.492 1940.93 81.8974 1944.33 78.6495C1947.74 75.4081 1949.57 74.0913 1950.53 72.5141C1951.49 70.9447 1950.09 69.7925 1949.14 70.8026C1948.18 71.8061 1948.14 73.397 1945.75 77.5604C1943.37 81.7237 1941.11 85.1109 1937.2 91.6205C1933.29 98.1301 1930.6 102.402 1926.21 110.107C1921.81 117.813 1919.59 122.389 1915.22 130.154C1910.83 137.922 1908.15 141.882 1904.32 148.938C1900.47 155.995 1899.18 159.597 1896.03 165.428C1892.87 171.26 1891.37 173.833 1888.55 178.101C1885.74 182.359 1884.46 183.952 1881.97 186.754C1879.47 189.564 1877.84 190.764 1876.08 192.134C1874.31 193.505 1874.39 193.645 1873.15 193.608C1871.9 193.572 1871.07 192.772 1869.83 191.962C1868.59 191.151 1868.17 191.31 1866.97 189.546C1865.77 187.791 1864.61 186.093 1863.82 183.168C1863.03 180.244 1862.67 178.738 1863.02 174.934C1863.37 171.139 1866.04 166.575 1865.59 164.166C1865.13 161.758 1862.36 160.874 1860.74 162.901C1859.11 164.928 1858.02 169.997 1857.45 174.311C1856.88 178.624 1857.23 180.635 1857.91 184.458C1858.6 188.281 1859.19 190.662 1860.89 193.434C1862.59 196.206 1863.85 197.085 1866.41 198.31C1868.98 199.535 1871.09 199.975 1873.72 199.566C1876.35 199.158 1877.24 198.299 1879.55 196.259C1881.85 194.218 1882.89 192.644 1885.25 189.354C1887.6 186.063 1888.68 184.333 1891.32 179.797C1893.96 175.27 1895.4 172.625 1898.43 166.685C1901.46 160.745 1902.69 157.161 1906.46 150.091C1910.23 143.021 1912.89 139.056 1917.3 131.332C1921.71 123.602 1923.95 119.029 1928.51 111.452C1933.07 103.873 1935.91 99.7931 1940.1 93.4331C1944.29 87.0809 1946.95 84.054 1949.45 79.6671C1951.95 75.2803 1952.88 73.6276 1952.57 71.4999C1952.26 69.3722 1950.14 68.1915 1947.9 69.021C1945.66 69.8495 1944.74 72.225 1941.36 75.6365C1937.99 79.0559 1935.54 81.8027 1931.02 86.1021C1926.5 90.3936 1923.53 92.9803 1918.77 97.1164C1914.02 101.251 1911.43 103.764 1907.25 106.787C1903.05 109.803 1900.81 110.832 1897.81 112.211C1894.83 113.597 1893.64 113.48 1892.3 113.689C1890.95 113.899 1891.29 114.126 1891.06 113.269C1890.83 112.412 1890.91 111.556 1891.14 109.403C1891.36 107.251 1891.76 105.551 1892.21 102.521C1892.67 99.4822 1893.21 97.3543 1893.42 94.2418C1893.62 91.1293 1894.12 89.1676 1893.25 86.9558C1892.38 84.7451 1891.05 83.4554 1889.07 83.1859C1887.1 82.9153 1885.78 83.4144 1883.38 85.5974C1880.98 87.7881 1880.06 90.3697 1877.06 94.124C1874.04 97.8795 1872.04 100.417 1868.33 104.365C1864.61 108.321 1862.4 110.65 1858.47 113.881C1854.54 117.114 1852.25 118.698 1848.66 120.541C1845.06 122.393 1843.17 122.675 1840.5 123.116C1837.82 123.556 1836.75 123.277 1835.26 122.744C1833.76 122.211 1833.6 122.004 1833 120.445C1832.41 118.886 1832.07 117.703 1832.28 114.947C1832.5 112.198 1833.16 110.11 1834.1 106.68C1835.04 103.251 1836.1 100.933 1836.97 97.8005C1837.85 94.6745 1838.76 92.8114 1838.47 91.0222C1838.2 89.2318 1836.75 88.365 1835.6 88.8564C1834.43 89.3411 1834.21 90.6247 1832.68 93.4578C1831.14 96.2998 1830.42 98.7085 1827.92 103.033C1825.4 107.359 1823.43 110.552 1820.12 115.093C1816.81 119.634 1814.82 122.201 1811.36 125.72C1807.9 129.239 1805.96 130.628 1802.83 132.697C1799.71 134.765 1797.9 135.298 1795.73 136.068C1793.56 136.832 1793.16 136.907 1791.97 136.536C1790.78 136.164 1790.55 135.983 1789.77 134.196C1788.99 132.411 1788.31 131.086 1788.06 127.604C1787.81 124.113 1788.13 121.317 1788.52 116.752C1788.92 112.194 1789.48 109.012 1790.01 104.791C1790.55 100.578 1791.65 98.1433 1791.19 95.6635C1790.73 93.1849 1789.13 91.9349 1787.69 92.3892C1786.25 92.8434 1785.77 94.3482 1783.98 97.9205C1782.19 101.5 1781.29 104.662 1778.75 110.281C1776.22 115.901 1774.69 119.45 1771.3 126.016C1767.92 132.574 1765.92 136.481 1761.84 143.095C1757.75 149.703 1755.46 153.311 1750.89 159.076C1746.32 164.839 1743.61 167.594 1739 171.914C1734.39 176.235 1732.01 178.263 1727.84 180.679C1723.66 183.096 1721.56 183.609 1718.13 184.002C1714.69 184.389 1713.25 184.215 1710.68 182.64C1708.11 181.065 1707.28 179.78 1705.28 176.129C1703.28 172.478 1701.99 169.883 1700.68 164.37C1699.37 158.848 1699.17 155.246 1698.71 148.538C1698.26 141.829 1698.27 138.036 1698.4 130.818C1698.52 123.593 1698.74 119.563 1699.32 112.42C1699.91 105.283 1700.49 102.028 1701.35 95.1227C1702.2 88.2095 1702.71 84.1592 1703.6 77.8785C1704.49 71.5901 1705.04 68.434 1705.79 63.687C1706.54 58.94 1707.78 56.1668 1707.34 54.1381C1706.91 52.1081 1704.67 51.7413 1703.62 53.5319Z" fill="black" stroke="black" stroke-width="14"/>
<path d="M1956.83 62.2636C1955.5 62.2482 1954.32 62.4245 1952.88 64.0884C1951.45 65.7445 1951.06 67.4347 1949.65 70.5443C1948.25 73.6606 1947.46 75.778 1945.85 79.6497C1944.24 83.5215 1943.2 86.0193 1941.61 89.8875C1940.03 93.7636 1938.77 95.6246 1937.92 99.0155C1937.07 102.4 1936.47 104.338 1937.37 106.823C1938.27 109.301 1939.83 110.867 1942.42 111.412C1945 111.958 1946.88 111.334 1950.28 109.536C1953.67 107.738 1955.4 105.975 1959.41 102.412C1963.43 98.8493 1965.9 96.3528 1970.34 91.7232C1974.78 87.0936 1977.16 84.2926 1981.6 79.281C1986.04 74.2603 1988.45 71.1696 1992.54 66.6548C1996.64 62.1478 1999 59.9073 2002.09 56.7305C2005.17 53.5538 2007.06 52.5473 2007.96 50.7879C2008.86 49.0207 2007.68 47.7633 2006.6 47.9088C2005.52 48.0632 2004.27 48.9506 2002.54 51.5344C2000.8 54.1272 1999.71 56.6242 1997.94 60.8625C1996.17 65.1096 1995.05 68.215 1993.69 72.759C1992.32 77.303 1991.48 79.6034 1991.12 83.5747C1990.77 87.537 1990.48 89.8102 1991.92 92.5896C1993.37 95.3678 1995.32 97.042 1998.33 97.4526C2001.34 97.8632 2003.12 96.6402 2006.94 94.6514C2010.77 92.6615 2012.86 91.0198 2017.44 87.5232C2022.02 84.0187 2024.87 81.5142 2029.87 77.1437C2034.87 72.7809 2037.6 69.9909 2042.44 65.6838C2047.28 61.3768 2049.84 59.0513 2054.05 55.6095C2058.28 52.1666 2061.05 50.5581 2063.54 48.4804C2066.03 46.396 2066.5 45.4984 2066.52 45.1996C2066.54 44.9021 2065.24 44.97 2063.66 46.9892C2062.09 49.0083 2061.11 51.3842 2058.65 55.2963C2056.19 59.2163 2053.8 62.543 2051.35 66.5732C2048.91 70.6099 2046.93 72.7287 2046.4 75.4758C2045.87 78.223 2046.95 79.9165 2048.69 80.3335C2050.44 80.7493 2052.05 79.7035 2055.12 77.5561C2058.19 75.4099 2060.26 73.0766 2064.01 69.6012C2067.76 66.1259 2069.96 63.5912 2073.87 60.1716C2077.79 56.7586 2080.46 54.957 2083.57 52.5409C2086.68 50.1248 2088.44 49.2172 2089.44 48.0965C2090.43 46.9769 2089.35 46.2068 2088.54 46.9564C2087.74 47.7138 2087.03 49.3249 2085.41 51.8678C2083.8 54.4017 2081.84 56.5115 2080.5 59.6507C2079.15 62.7911 2078.13 64.9891 2078.69 67.5662C2079.25 70.1422 2080.93 72.1279 2083.26 72.552C2085.59 72.9761 2087.12 71.776 2090.35 69.6766C2093.58 67.5693 2095.41 65.5506 2099.39 62.0414C2103.37 58.5245 2105.79 55.9961 2110.21 52.1096C2114.63 48.2231 2117.16 45.9023 2121.52 42.6144C2125.88 39.3342 2128.76 37.5412 2132.02 35.6922C2135.27 33.8365 2136.65 33.8772 2137.79 33.3571C2138.92 32.8369 2138.18 32.1747 2137.71 33.0903C2137.24 34.0047 2136.45 35.2765 2135.41 37.9403C2134.38 40.595 2133.46 42.7724 2132.54 46.3899C2131.62 50.0075 2130.82 52.341 2130.83 56.0101C2130.85 59.6792 2130.85 62.1955 2132.61 64.7187C2134.38 67.2496 2136.28 68.0008 2139.65 68.6428C2143.03 69.2769 2144.93 69.2628 2149.49 67.9039C2154.05 66.5462 2156.21 65.1001 2162.42 61.8541C2168.64 58.607 2173.5 55.8804 2180.56 51.6718C2187.61 47.4632 2191.8 44.6076 2197.7 40.819C2203.6 37.0215 2207.86 34.7758 2210.05 32.7202C2212.23 30.6657 2211.4 29.3882 2208.63 30.5355C2205.87 31.6816 2202.14 34.7714 2196.21 38.4688C2190.28 42.1584 2186.07 44.9552 2179 49.0068C2171.92 53.0585 2166.97 55.7901 2160.85 58.7358C2154.73 61.6815 2152.41 62.8247 2148.39 63.7377C2144.36 64.6507 2142.82 63.7489 2140.71 63.2999C2138.61 62.8587 2138.49 62.8996 2137.83 61.5017C2137.16 60.105 2137.06 58.9573 2137.36 56.3075C2137.68 53.6565 2138.4 51.5496 2139.37 48.2425C2140.35 44.9431 2141.66 42.9703 2142.23 39.7885C2142.79 36.6145 2143.17 34.5434 2142.18 32.3502C2141.19 30.1636 2139.8 28.9791 2137.3 28.8502C2134.81 28.7213 2133.35 29.5689 2129.71 31.6979C2126.07 33.8269 2123.52 36.0164 2119.1 39.4886C2114.68 42.9607 2112.17 45.2947 2107.61 49.0663C2103.05 52.8457 2100.42 55.1583 2096.32 58.352C2092.21 61.5457 2089.78 63.0004 2087.09 65.0193C2084.4 67.046 2083.33 67.7718 2082.87 68.4611C2082.43 69.1414 2083.74 69.4699 2084.82 68.4489C2085.89 67.4201 2086.8 66.0739 2088.26 63.3238C2089.72 60.5814 2091.21 58.0171 2092.1 54.7138C2092.99 51.4117 2093.63 49.0069 2092.72 46.8098C2091.81 44.6116 2090.01 43.3841 2087.56 43.7416C2085.12 44.0914 2083.85 46.0015 2080.5 48.5885C2077.15 51.1756 2074.82 53.2444 2070.84 56.6835C2066.85 60.1148 2064.4 62.4239 2060.56 65.7618C2056.72 69.0996 2054.13 70.8806 2051.62 73.3572C2049.12 75.8338 2048.06 77.2022 2048.05 78.1446C2048.03 79.0793 2049.82 79.7265 2051.53 78.0463C2053.23 76.3582 2054.15 73.6719 2056.55 69.7134C2058.95 65.7549 2061.11 62.335 2063.52 58.2472C2065.92 54.1528 2067.85 52.2405 2068.59 49.2624C2069.33 46.2933 2068.76 44.2676 2067.23 43.3747C2065.7 42.4807 2064.04 42.9108 2060.93 44.7945C2057.82 46.6849 2055.8 49.128 2051.66 52.8132C2047.52 56.4906 2045.04 58.8846 2040.22 63.2127C2035.4 67.5408 2032.62 70.2666 2027.57 74.4537C2022.52 78.6408 2019.56 81.0024 2014.99 84.1547C2010.42 87.3149 2007.96 88.6784 2004.73 90.2287C2001.49 91.7802 2000.36 91.877 1998.82 91.9009C1997.28 91.9159 1997.52 91.8964 1997.03 90.3292C1996.54 88.7619 1996.02 87.2617 1996.36 84.0658C1996.69 80.8711 1997.27 78.499 1998.68 74.3457C2000.1 70.2001 2001.54 67.3008 2003.45 63.3122C2005.36 59.3159 2007.16 57.3576 2008.22 54.3718C2009.28 51.3859 2009.48 49.7872 2008.75 48.3921C2008.01 46.9891 2006.49 46.2844 2004.54 47.3894C2002.58 48.4865 2001.88 50.4941 1998.97 53.8925C1996.05 57.2986 1993.94 59.7647 1989.97 64.4033C1986.01 69.042 1983.58 72.1362 1979.13 77.0856C1974.69 82.0349 1972.27 84.7771 1967.75 89.1411C1963.22 93.5051 1960.52 95.8192 1956.5 98.8976C1952.48 101.984 1950.35 103.099 1947.62 104.558C1944.9 106.008 1943.86 105.932 1942.87 106.168C1941.89 106.403 1942.51 106.858 1942.68 105.742C1942.85 104.626 1942.9 103.328 1943.72 100.57C1944.53 97.8209 1945.24 95.6763 1946.74 91.979C1948.26 88.2883 1949.44 85.7616 1951.27 82.1123C1953.09 78.463 1954.21 76.5439 1955.86 73.7334C1957.5 70.9307 1958.77 70.0165 1959.51 68.0899C1960.26 66.1712 1960.09 65.2956 1959.55 64.1264C1959.02 62.956 1958.17 62.2712 1956.83 62.2636Z" fill="black" stroke="black" stroke-width="14"/>
</svg>
